# xmcd
#
# Track frame offsets:
#	225
#	19410
#	39649
#	53890
#	76539
#	98735
#	114174
#	136350
#	161102
#	178130
#	197894
#	219497
#	239327
#	258825
#	279771
#	302820
#
# Disc length: 4369 seconds
#
# Revision: 0
# Processed by: cddbd v1.5.2PL0 Copyright (c) Steve Scherf et al.
# Submitted via: EasyCDDAExtractor 10.0.2.1
#
DISCID=d7110e10
DTITLE=Paramitha Rusady - Lagu-lagu Terbaik Paramitha Rusady
DYEAR=1996
DGENRE=Pop
TTITLE0=Janjiku (Cipt. Chossy P.)
TTITLE1=Jangan Ada Air Mata (Cipt. Harry Tasman)
TTITLE2=Penglihatan (Cipt. Paramitha Rusady)
TTITLE3=Mimpi  (Cipt. Paramitha Rusady)
TTITLE4=Tiada Lagi Asmara (Cipt. Oddie Agam)
TTITLE5=Nada (Cipt. Chossy P.)
TTITLE6=Nostalgia SMA (Cipt. Dadang S. Manaf)
TTITLE7=Percayalah (Cipt. Andre Hehanusa)
TTITLE8=Kisah Buku Harianku (Cipt. J.J. Jonathan)
TTITLE9=Mengapa Kau Didekatku  (Cipt. Paramitha Rusady)
TTITLE10=Merpati Tak Pernah Ingkar Janji (Cipt. Billy J. Budiarjo)
TTITLE11=Tanpa Dirimu (Cipt. Younky S.)
TTITLE12=Terbuai  (Cipt. Paramitha Rusady)
TTITLE13=Perisai Cinta  (Cipt. Paramitha Rusady)
TTITLE14=Maafkanlah  (Cipt. Paramitha Rusady)
TTITLE15=Tiada Maafmu (Cipt. Budi Bidhun)
EXTD=
EXTT0=
EXTT1=
EXTT2=
EXTT3=
EXTT4=
EXTT5=
EXTT6=
EXTT7=
EXTT8=
EXTT9=
EXTT10=
EXTT11=
EXTT12=
EXTT13=
EXTT14=
EXTT15=
PLAYORDER=
